<svg viewBox="0 0 18 18" xmlns="http://www.w3.org/2000/svg">
    <path fill-rule="evenodd" clip-rule="evenodd"
        d="M8.99999 17.3332C13.6024 17.3332 17.3333 13.6022 17.3333 8.99984C17.3333 4.39747 13.6024 0.666504 8.99999 0.666504C4.39762 0.666504 0.666656 4.39747 0.666656 8.99984C0.666656 13.6022 4.39762 17.3332 8.99999 17.3332ZM6.97135 6.02839C6.711 5.76804 6.2889 5.76804 6.02855 6.02839C5.7682 6.28874 5.7682 6.71085 6.02855 6.9712L8.05714 8.9998L6.02855 11.0284C5.7682 11.2887 5.7682 11.7109 6.02855 11.9712C6.2889 12.2316 6.711 12.2316 6.97135 11.9712L8.99995 9.94261L11.0285 11.9712C11.2889 12.2316 11.711 12.2316 11.9714 11.9712C12.2317 11.7109 12.2317 11.2887 11.9714 11.0284L9.94276 8.9998L11.9714 6.9712C12.2317 6.71085 12.2317 6.28874 11.9714 6.02839C11.711 5.76804 11.2889 5.76804 11.0285 6.02839L8.99995 8.05699L6.97135 6.02839Z"
        fill="#C6B2B6" />
</svg>