<svg width="94" height="65" viewBox="0 0 94 65" fill="none" xmlns="http://www.w3.org/2000/svg">
<path d="M40.4869 28.2791C41.934 28.2725 43.3661 28.5816 44.6892 29.186C46.0155 29.7755 47.2248 30.6124 48.2563 31.6548C50.3884 33.8831 51.5823 36.8884 51.5791 40.0185C51.6055 43.0929 50.4561 46.0542 48.3799 48.261C46.3037 50.4677 43.4679 51.7422 40.4869 51.8083C39.0236 51.819 37.5747 51.5099 36.2357 50.9014C33.49 49.6101 31.3357 47.2731 30.2243 44.3801C29.113 41.4871 29.1309 38.2629 30.2742 35.3832C31.4034 32.6135 33.5194 30.3955 36.1868 29.186C37.5427 28.5764 39.0077 28.2674 40.4869 28.2791ZM41.7573 50.7503C43.1744 50.7503 44.2494 49.793 44.9824 47.9288C45.7613 45.3712 45.929 42.6573 45.471 40.0185C45.2211 37.2443 44.4229 34.5523 43.1255 32.1083C41.9528 30.2441 40.6335 29.3372 39.2164 29.3372C37.7993 29.3372 36.7732 30.2441 36.0402 32.1083C35.243 34.6614 35.0586 37.3758 35.5027 40.0185C35.6985 42.8034 36.5002 45.5071 37.8482 47.9288C39.0209 49.793 40.3403 50.7503 41.7573 50.7503Z" fill="white"/>
<path d="M92.2223 51.4004L83.1824 51.35V46.5636L82.9381 47.7224C82.7735 48.3597 82.4914 48.9584 82.1074 49.4858C81.6022 50.1489 80.9702 50.6977 80.2505 51.0981C79.2473 51.6008 78.1402 51.843 77.0255 51.8035C75.973 51.8429 74.9243 51.6541 73.947 51.2493C72.3006 50.6416 70.9502 49.3938 70.1845 47.7728C69.8488 46.961 69.6823 46.0856 69.6958 45.2032C69.6958 43.6413 70.0379 42.3817 70.722 41.4748C71.3572 40.5679 72.1879 39.8625 73.2141 39.3083C74.1913 38.7541 75.2664 38.351 76.4391 38.0487C77.5419 37.7729 78.634 37.4536 79.713 37.0914C80.6903 36.7387 81.521 36.3357 82.2051 35.7815C82.8403 35.2776 83.1824 34.5219 83.1824 33.5646C83.1965 32.8011 83.1144 32.039 82.9381 31.2973C82.8095 30.7976 82.5759 30.3332 82.254 29.9369C81.9516 29.6331 81.5829 29.4085 81.1789 29.282C80.6971 29.1769 80.2055 29.1262 79.713 29.1308C78.5891 29.1308 77.7584 29.4331 77.2209 30.0881C76.6741 30.7127 76.3025 31.4791 76.1459 32.305C75.9992 33.104 75.9992 33.9244 76.1459 34.7234C76.2925 35.4792 76.488 36.0334 76.7812 36.3357C75.7761 36.6394 74.7077 36.6394 73.7027 36.3357C72.9257 36.1407 72.2363 35.6787 71.7481 35.0257C71.3253 34.4496 71.133 33.7283 71.2106 33.0104C71.31 32.1546 71.7098 31.366 72.3345 30.7935C73.2131 29.966 74.2674 29.362 75.413 29.03C78.3577 28.1519 81.474 28.0824 84.4528 28.8285C85.3565 29.0985 86.2022 29.543 86.9449 30.1385C87.5255 30.6313 87.9928 31.2508 88.3131 31.9523C88.6035 32.6353 88.7532 33.373 88.7529 34.1188V47.3697C88.7529 48.327 89.095 49.1835 89.7791 49.8889C90.0959 50.2263 90.4757 50.494 90.8956 50.6758C91.3155 50.8576 91.7668 50.9499 92.2223 50.947V51.4004ZM83.1824 35.2776C82.9644 35.7901 82.6082 36.2273 82.1562 36.5372C81.6723 36.8459 81.1658 37.1155 80.6414 37.3434L78.9312 38.1495C78.2927 38.4055 77.7143 38.7984 77.2341 39.3021C76.754 39.8059 76.383 40.4091 76.1459 41.0717C75.7801 42.0156 75.6135 43.029 75.6573 44.0444C75.6573 45.1528 75.8527 46.1605 76.1948 47.017C76.4856 47.8222 76.954 48.5467 77.563 49.1331C78.0406 49.6494 78.6823 49.9712 79.371 50.0401C80.0268 50.0873 80.6748 49.8706 81.1789 49.4354C81.8424 48.7861 82.3307 47.97 82.596 47.0674C82.9858 45.6066 83.183 44.0983 83.1824 42.5833V35.2776Z" fill="white"/>
<path fill-rule="evenodd" clip-rule="evenodd" d="M52.981 58.1305C52.3129 58.3652 51.6699 58.4839 51.0509 58.4839C50.4251 58.4871 49.8012 58.4109 49.1933 58.2571C48.6594 58.1238 48.1367 57.9467 47.63 57.7276C47.0984 57.5371 46.5901 57.2835 46.1152 56.972C46.1811 58.2145 46.3921 59.3062 46.7504 60.2472C47.0764 61.0868 47.5815 61.8425 48.2652 62.5147C48.9495 63.1863 49.9454 63.4896 51.2463 63.5217C61.8097 63.7899 68.9654 34.8224 68.8174 24.5656L66.9635 24.4692C66.7004 31.462 64.8207 39.151 63.1963 43.597C62.497 45.5086 58.6447 56.1373 52.981 58.1305Z" fill="white"/>
<path d="M24.7114 47.376C24.7114 48.346 25.0542 49.19 25.7379 49.895C26.4216 50.5999 27.2359 50.9527 28.1809 50.9527V51.3562H15.5735V50.9527C16.5184 50.9527 17.3334 50.6005 18.0171 49.895C18.7008 49.19 19.0435 48.3497 19.0435 47.3754V29.311C19.0435 27.0521 17.8277 26.1872 15.8647 26.1872L15.5417 25.2097L24.7114 22.207V47.376Z" fill="white"/>
<path d="M9.90185 47.3773C9.90485 48.3485 10.244 49.1907 10.9283 49.8962C11.612 50.6012 12.4263 50.954 13.3713 50.954V51.3574H0.763916V50.954C1.70887 50.954 2.52379 50.6006 3.20749 49.8962C3.89059 49.1919 4.23332 48.3516 4.23332 47.3767V29.4642C4.23332 26.8507 4.20876 29.4265 4.24111 26.5981C4.27467 23.659 4.42808 19.2198 4.69773 17.8778C5.00692 16.3419 5.54559 14.9381 6.31018 13.6876C7.07792 12.4307 8.12486 11.3802 9.36438 10.6231C10.6323 9.8391 12.2472 9.44678 14.2018 9.44678C15.7004 9.44678 16.9797 9.71615 18.0379 10.2531C19.0961 10.79 19.9117 11.4628 20.4809 12.2684C21.0414 13.0496 21.3875 13.972 21.4828 14.9388C21.5805 15.9125 21.4336 16.8028 21.043 17.6091C20.6523 18.4154 20.0249 19.0956 19.1614 19.6498C18.2986 20.204 17.199 20.4808 15.8634 20.4808C16.2896 19.4633 16.5616 18.3843 16.6699 17.2816C16.7832 16.1572 16.6939 15.1149 16.4009 14.1578C16.1225 13.2237 15.5878 12.3927 14.8615 11.7649C14.1293 11.1273 13.1274 10.8073 11.8565 10.8073C11.1075 10.8073 10.5855 11.186 10.2925 11.941C10.0001 12.696 9.81917 13.6462 9.75505 14.7874C9.69094 15.9292 9.69153 17.1815 9.75505 18.5414C9.80658 19.6288 9.83893 22.747 9.84912 25.8857C9.8641 30.5899 9.84613 26.0482 9.85511 29.5767L9.90185 47.3773Z" fill="white"/>
<path fill-rule="evenodd" clip-rule="evenodd" d="M0 30.4642L13.7447 25.7402L14.0455 26.6639L0.300811 31.3879L0 30.4642Z" fill="white"/>
<path fill-rule="evenodd" clip-rule="evenodd" d="M68.2683 24.8354L68.2349 24.8051C63.9762 25.0827 59.463 23.4187 56.0277 19.8766C52.5792 16.3209 50.9662 11.6463 51.2502 7.2411C55.3049 6.96375 59.595 8.44716 62.9688 11.6385C62.6544 13.3104 62.829 15.4891 63.5513 17.623C64.2763 19.7645 65.3968 21.3937 66.5545 22.1963C66.8739 20.5219 66.7007 18.3341 65.9757 16.1927C65.256 14.0671 64.1466 12.4461 62.9981 11.6374C63.1995 6.92747 65.2145 2.75691 68.2683 0C71.3208 2.75523 73.3347 6.92238 73.5381 11.6288C72.3852 12.4346 71.2705 14.0595 70.5483 16.1927C69.8232 18.3341 69.65 20.5219 69.9688 22.1963C71.1271 21.3937 72.247 19.7645 72.9726 17.623C73.6936 15.4928 73.8689 13.3181 73.5567 11.6474C76.9321 8.4499 81.2263 6.9635 85.2847 7.2411C85.5682 11.6463 83.9557 16.3209 80.5073 19.8766C77.0719 23.4181 72.5596 25.0822 68.3016 24.8052L68.2683 24.8354Z" fill="white"/>
<path fill-rule="evenodd" clip-rule="evenodd" d="M63.8003 42.4506C63.5318 38.3729 61.8163 33.4215 58.8508 28.931C55.8847 24.4399 52.3146 21.3872 49.1526 20.2695C49.421 24.3473 51.1365 29.2987 54.102 33.7891C57.0681 38.2796 60.6382 41.333 63.8003 42.4506Z" fill="white"/>
</svg>
