<svg width="0" height="0" style="display: none;">
    <symbol xmlns="http://www.w3.org/2000/svg" viewBox="0 0 20 21" id="whatsapp">
        <path
            d="M10.0025 0.5H9.9975C4.48375 0.5 0 4.985 0 10.5C0 12.6875 0.705 14.715 1.90375 16.3612L0.6575 20.0763L4.50125 18.8475C6.0825 19.895 7.96875 20.5 10.0025 20.5C15.5162 20.5 20 16.0138 20 10.5C20 4.98625 15.5162 0.5 10.0025 0.5ZM15.8212 14.6213C15.58 15.3025 14.6225 15.8675 13.8587 16.0325C13.3363 16.1437 12.6537 16.2325 10.3562 15.28C7.4175 14.0625 5.525 11.0763 5.3775 10.8825C5.23625 10.6887 4.19 9.30125 4.19 7.86625C4.19 6.43125 4.91875 5.7325 5.2125 5.4325C5.45375 5.18625 5.8525 5.07375 6.235 5.07375C6.35875 5.07375 6.47 5.08 6.57 5.085C6.86375 5.0975 7.01125 5.115 7.205 5.57875C7.44625 6.16 8.03375 7.595 8.10375 7.7425C8.175 7.89 8.24625 8.09 8.14625 8.28375C8.0525 8.48375 7.97 8.5725 7.8225 8.7425C7.675 8.9125 7.535 9.0425 7.3875 9.225C7.2525 9.38375 7.1 9.55375 7.27 9.8475C7.44 10.135 8.0275 11.0937 8.8925 11.8637C10.0087 12.8575 10.9137 13.175 11.2375 13.31C11.4787 13.41 11.7662 13.3863 11.9425 13.1988C12.1663 12.9575 12.4425 12.5575 12.7238 12.1638C12.9237 11.8813 13.1763 11.8462 13.4412 11.9462C13.7113 12.04 15.14 12.7462 15.4338 12.8925C15.7275 13.04 15.9212 13.11 15.9925 13.2338C16.0625 13.3575 16.0625 13.9388 15.8212 14.6213Z"
            fill="inherit"></path>
    </symbol>
    <symbol xmlns="http://www.w3.org/2000/svg" viewBox="0 0 30 23" id="hamburger">
        <path
            d="M28.125 4.625H1.875C0.8125 4.625 0 3.8125 0 2.75C0 1.6875 0.8125 0.875 1.875 0.875H28.125C29.1875 0.875 30 1.6875 30 2.75C30 3.8125 29.1875 4.625 28.125 4.625ZM28.125 13.375H1.875C0.8125 13.375 0 12.5625 0 11.5C0 10.4375 0.8125 9.625 1.875 9.625H28.125C29.1875 9.625 30 10.4375 30 11.5C30 12.5625 29.1875 13.375 28.125 13.375ZM28.125 22.125H1.875C0.8125 22.125 0 21.3125 0 20.25C0 19.1875 0.8125 18.375 1.875 18.375H28.125C29.1875 18.375 30 19.1875 30 20.25C30 21.3125 29.1875 22.125 28.125 22.125Z"
            fill="white"></path>
    </symbol>
    <symbol xmlns="http://www.w3.org/2000/svg" viewBox="0 0 18 19" id="mail">
        <g clip-path="url(#clip0_1_707)">
            <path
                d="M9.52066 11.774C9.35065 11.8802 9.15939 11.9227 8.98937 11.9227C8.81936 11.9227 8.6281 11.8802 8.45809 11.774L0 6.60986V13.4741C0 14.9404 1.19008 16.1305 2.65643 16.1305H15.3436C16.8099 16.1305 18 14.9404 18 13.4741V6.60986L9.52066 11.774Z"
                fill="inherit"></path>
            <path
                d="M15.3435 2.86963H2.65639C1.40255 2.86963 0.339979 3.76219 0.0849609 4.95227L9.01058 10.3927L17.9149 4.95227C17.6599 3.76219 16.5974 2.86963 15.3435 2.86963Z"
                fill="inherit"></path>
        </g>
        <defs>
            <clipPath id="clip0_1_707">
                <rect width="18" height="18" fill="white" transform="translate(0 0.5)"></rect>
            </clipPath>
        </defs>
    </symbol>
    <symbol xmlns="http://www.w3.org/2000/svg" viewBox="0 0 18 17" id="phone">
        <path
            d="M16.8947 12.2125C16.8486 12.1759 13.5 9.76225 12.5809 9.9355C12.1421 10.0131 11.8913 10.3124 11.3878 10.9114C11.3068 11.0082 11.1122 11.2399 10.9609 11.4047C10.6427 11.301 10.3324 11.1747 10.0322 11.0268C8.48279 10.2724 7.23093 9.02058 6.47662 7.47119C6.32861 7.17105 6.20229 6.86069 6.09863 6.5425C6.264 6.39063 6.49575 6.196 6.59475 6.11275C7.191 5.61212 7.49081 5.36125 7.56844 4.92137C7.72762 4.01012 5.31562 0.6385 5.29031 0.608125C5.18088 0.45179 5.03806 0.321735 4.87219 0.227371C4.70632 0.133006 4.52155 0.0766908 4.33125 0.0625C3.35362 0.0625 0.5625 3.68331 0.5625 4.29306C0.5625 4.3285 0.613688 7.93075 5.05575 12.4493C9.56981 16.8863 13.1715 16.9375 13.2069 16.9375C13.8173 16.9375 17.4375 14.1464 17.4375 13.1687C17.4235 12.9791 17.3675 12.795 17.2736 12.6296C17.1797 12.4642 17.0503 12.3218 16.8947 12.2125Z"
            fill="inherit"></path>
    </symbol>
    <symbol xmlns="http://www.w3.org/2000/svg" viewBox="0 0 24 25" id="telegram">
        <path
            d="M2.91499 12.3078C9.19899 9.54334 17.331 6.17284 18.4535 5.70634C21.398 4.48534 22.3015 4.71934 21.851 7.42334C21.5275 9.36684 20.594 15.8013 19.85 19.8063C19.4085 22.1813 18.418 22.4628 16.8605 21.4353C16.1115 20.9408 12.331 18.4408 11.5105 17.8538C10.7615 17.3188 9.72849 16.6753 11.024 15.4078C11.485 14.9563 14.507 12.0708 16.8615 9.82484C17.17 9.52984 16.7825 9.04534 16.4265 9.28184C13.253 11.3863 8.85299 14.3073 8.29299 14.6878C7.44699 15.2623 6.63449 15.5258 5.17599 15.1068C4.07399 14.7903 2.99749 14.4128 2.57849 14.2688C0.964993 13.7148 1.34799 12.9973 2.91499 12.3078Z"
            fill="inherit"></path>
    </symbol>
    <symbol viewBox="0 0 40 40" xmlns="http://www.w3.org/2000/svg" id="star">
        <path
            d="M39.3852 20.2075V19.7922C30.8006 19.5152 26.8821 19.3075 23.739 16.2614C20.6929 13.1183 20.4714 9.19985 20.2083 0.615234H19.7929C19.516 9.19985 19.3083 13.1183 16.2621 16.2614C13.119 19.3075 9.20058 19.5291 0.615967 19.7922V20.2075C9.20058 20.4845 13.119 20.6922 16.2621 23.7383C19.3083 26.8814 19.5298 30.7999 19.7929 39.3845H20.2083C20.4852 30.7999 20.6929 26.8814 23.739 23.7383C26.8821 20.6922 30.8006 20.4706 39.3852 20.2075Z"
            fill="inherit" />
    </symbol>
    <symbol viewBox="0 0 29 18" xmlns="http://www.w3.org/2000/svg" id="vk">
        <path
            d="M27.6317 13.5187C27.0237 12.7889 26.3328 12.1349 25.6647 11.5023C25.4271 11.2773 25.1815 11.0448 24.9447 10.8135C24.2649 10.1488 24.2401 9.89909 24.7784 9.14411C25.1507 8.62369 25.5456 8.10259 25.9274 7.59862C26.2737 7.14138 26.6319 6.66854 26.9752 6.19417L27.0456 6.09663C27.7017 5.18885 28.3802 4.25016 28.7413 3.1178C28.8351 2.81904 28.9335 2.37941 28.7084 2.01179C28.4834 1.64448 28.047 1.53242 27.7383 1.48008C27.5856 1.45418 27.4339 1.45064 27.2932 1.45064L22.9967 1.44757L22.9612 1.44726C22.3116 1.44726 21.8738 1.75339 21.6229 2.38325C21.3834 2.98506 21.1203 3.62591 20.8201 4.23525C20.2227 5.44863 19.4639 6.84617 18.366 8.01174L18.3196 8.06131C18.1899 8.20066 18.043 8.35845 17.9357 8.35845C17.9192 8.35845 17.9013 8.3553 17.881 8.34892C17.6536 8.2603 17.5009 7.70976 17.5079 7.45366C17.5079 7.45013 17.508 7.44659 17.508 7.44306L17.505 2.47717C17.505 2.45996 17.5038 2.44289 17.5016 2.42583C17.3923 1.61858 17.1502 1.11607 16.2354 0.936912C16.211 0.932089 16.1863 0.92967 16.1615 0.929688H11.694C10.9661 0.929688 10.5651 1.22552 10.1881 1.66831C10.0863 1.78667 9.87449 2.03308 9.97948 2.33199C10.086 2.63535 10.4318 2.70022 10.5444 2.72128C11.1033 2.82765 11.4184 3.16952 11.5076 3.76687C11.6634 4.80417 11.6825 5.91133 11.5679 7.25121C11.5359 7.6236 11.4726 7.91121 11.3684 8.15692C11.3442 8.21426 11.2583 8.40141 11.1708 8.40149C11.143 8.40149 11.0625 8.39058 10.9159 8.28958C10.5694 8.05217 10.3158 7.71337 10.0202 7.29487C9.01459 5.87366 8.1706 4.30804 7.43967 2.50746C7.16858 1.84462 6.66231 1.47354 6.01347 1.46263C5.30052 1.45179 4.65413 1.44657 4.03764 1.44657C3.36405 1.44657 2.73957 1.45279 2.12976 1.46547C1.60773 1.4747 1.24665 1.63118 1.05665 1.93093C0.866349 2.23092 0.878724 2.62497 1.09347 3.10196C2.8125 6.92364 4.37113 9.70234 6.14735 12.112C7.39194 13.7982 8.64029 14.9653 10.0756 15.7847C11.5877 16.6497 13.2823 17.0703 15.256 17.0703C15.4798 17.0703 15.7111 17.0648 15.9444 17.0539C17.0913 16.9981 17.5168 16.5829 17.5706 15.4662C17.5962 14.8956 17.6586 14.2971 17.9391 13.7866C18.1162 13.4651 18.2813 13.4651 18.3356 13.4651C18.4401 13.4651 18.5697 13.5132 18.7089 13.6033C18.9585 13.7663 19.1726 13.9846 19.348 14.1752C19.5132 14.3564 19.6765 14.5394 19.84 14.7225C20.1928 15.1176 20.5576 15.5261 20.9386 15.9136C21.7727 16.7622 22.6916 17.1354 23.7469 17.0544H27.6861C27.6945 17.0544 27.7029 17.0541 27.7113 17.0535C28.1038 17.0276 28.4438 16.8099 28.644 16.4562C28.892 16.018 28.887 15.459 28.6306 14.9605C28.3397 14.3968 27.9623 13.9152 27.6317 13.5187Z"
            fill="inherit" />
    </symbol>
    <symbol viewBox="0 0 94 65" xmlns="http://www.w3.org/2000/svg" id="logo">
        <path
            d="M40.4869 28.2791C41.934 28.2725 43.3661 28.5816 44.6892 29.186C46.0155 29.7755 47.2248 30.6124 48.2563 31.6548C50.3884 33.8831 51.5823 36.8884 51.5791 40.0185C51.6055 43.0929 50.4561 46.0542 48.3799 48.261C46.3037 50.4677 43.4679 51.7422 40.4869 51.8083C39.0236 51.819 37.5747 51.5099 36.2357 50.9014C33.49 49.6101 31.3357 47.2731 30.2243 44.3801C29.113 41.4871 29.1309 38.2629 30.2742 35.3832C31.4034 32.6135 33.5194 30.3955 36.1868 29.186C37.5427 28.5764 39.0077 28.2674 40.4869 28.2791ZM41.7573 50.7503C43.1744 50.7503 44.2494 49.793 44.9824 47.9288C45.7613 45.3712 45.929 42.6573 45.471 40.0185C45.2211 37.2443 44.4229 34.5523 43.1255 32.1083C41.9528 30.2441 40.6335 29.3372 39.2164 29.3372C37.7993 29.3372 36.7732 30.2441 36.0402 32.1083C35.243 34.6614 35.0586 37.3758 35.5027 40.0185C35.6985 42.8034 36.5002 45.5071 37.8482 47.9288C39.0209 49.793 40.3403 50.7503 41.7573 50.7503Z"
            fill="inherit" />
        <path
            d="M92.2223 51.4004L83.1824 51.35V46.5636L82.9381 47.7224C82.7735 48.3597 82.4914 48.9584 82.1074 49.4858C81.6022 50.1489 80.9702 50.6977 80.2505 51.0981C79.2473 51.6008 78.1402 51.843 77.0255 51.8035C75.973 51.8429 74.9243 51.6541 73.947 51.2493C72.3006 50.6416 70.9502 49.3938 70.1845 47.7728C69.8488 46.961 69.6823 46.0856 69.6958 45.2032C69.6958 43.6413 70.0379 42.3817 70.722 41.4748C71.3572 40.5679 72.1879 39.8625 73.2141 39.3083C74.1913 38.7541 75.2664 38.351 76.4391 38.0487C77.5419 37.7729 78.634 37.4536 79.713 37.0914C80.6903 36.7387 81.521 36.3357 82.2051 35.7815C82.8403 35.2776 83.1824 34.5219 83.1824 33.5646C83.1965 32.8011 83.1144 32.039 82.9381 31.2973C82.8095 30.7976 82.5759 30.3332 82.254 29.9369C81.9516 29.6331 81.5829 29.4085 81.1789 29.282C80.6971 29.1769 80.2055 29.1262 79.713 29.1308C78.5891 29.1308 77.7584 29.4331 77.2209 30.0881C76.6741 30.7127 76.3025 31.4791 76.1459 32.305C75.9992 33.104 75.9992 33.9244 76.1459 34.7234C76.2925 35.4792 76.488 36.0334 76.7812 36.3357C75.7761 36.6394 74.7077 36.6394 73.7027 36.3357C72.9257 36.1407 72.2363 35.6787 71.7481 35.0257C71.3253 34.4496 71.133 33.7283 71.2106 33.0104C71.31 32.1546 71.7098 31.366 72.3345 30.7935C73.2131 29.966 74.2674 29.362 75.413 29.03C78.3577 28.1519 81.474 28.0824 84.4528 28.8285C85.3565 29.0985 86.2022 29.543 86.9449 30.1385C87.5255 30.6313 87.9928 31.2508 88.3131 31.9523C88.6035 32.6353 88.7532 33.373 88.7529 34.1188V47.3697C88.7529 48.327 89.095 49.1835 89.7791 49.8889C90.0959 50.2263 90.4757 50.494 90.8956 50.6758C91.3155 50.8576 91.7668 50.9499 92.2223 50.947V51.4004ZM83.1824 35.2776C82.9644 35.7901 82.6082 36.2273 82.1562 36.5372C81.6723 36.8459 81.1658 37.1155 80.6414 37.3434L78.9312 38.1495C78.2927 38.4055 77.7143 38.7984 77.2341 39.3021C76.754 39.8059 76.383 40.4091 76.1459 41.0717C75.7801 42.0156 75.6135 43.029 75.6573 44.0444C75.6573 45.1528 75.8527 46.1605 76.1948 47.017C76.4856 47.8222 76.954 48.5467 77.563 49.1331C78.0406 49.6494 78.6823 49.9712 79.371 50.0401C80.0268 50.0873 80.6748 49.8706 81.1789 49.4354C81.8424 48.7861 82.3307 47.97 82.596 47.0674C82.9858 45.6066 83.183 44.0983 83.1824 42.5833V35.2776Z"
            fill="inherit" />
        <path fill-rule="evenodd" clip-rule="evenodd"
            d="M52.981 58.1305C52.3129 58.3652 51.6699 58.4839 51.0509 58.4839C50.4251 58.4871 49.8012 58.4109 49.1933 58.2571C48.6594 58.1238 48.1367 57.9467 47.63 57.7276C47.0984 57.5371 46.5901 57.2835 46.1152 56.972C46.1811 58.2145 46.3921 59.3062 46.7504 60.2472C47.0764 61.0868 47.5815 61.8425 48.2652 62.5147C48.9495 63.1863 49.9454 63.4896 51.2463 63.5217C61.8097 63.7899 68.9654 34.8224 68.8174 24.5656L66.9635 24.4692C66.7004 31.462 64.8207 39.151 63.1963 43.597C62.497 45.5086 58.6447 56.1373 52.981 58.1305Z"
            fill="inherit" />
        <path
            d="M24.7114 47.376C24.7114 48.346 25.0542 49.19 25.7379 49.895C26.4216 50.5999 27.2359 50.9527 28.1809 50.9527V51.3562H15.5735V50.9527C16.5184 50.9527 17.3334 50.6005 18.0171 49.895C18.7008 49.19 19.0435 48.3497 19.0435 47.3754V29.311C19.0435 27.0521 17.8277 26.1872 15.8647 26.1872L15.5417 25.2097L24.7114 22.207V47.376Z"
            fill="inherit" />
        <path
            d="M9.90185 47.3773C9.90485 48.3485 10.244 49.1907 10.9283 49.8962C11.612 50.6012 12.4263 50.954 13.3713 50.954V51.3574H0.763916V50.954C1.70887 50.954 2.52379 50.6006 3.20749 49.8962C3.89059 49.1919 4.23332 48.3516 4.23332 47.3767V29.4642C4.23332 26.8507 4.20876 29.4265 4.24111 26.5981C4.27467 23.659 4.42808 19.2198 4.69773 17.8778C5.00692 16.3419 5.54559 14.9381 6.31018 13.6876C7.07792 12.4307 8.12486 11.3802 9.36438 10.6231C10.6323 9.8391 12.2472 9.44678 14.2018 9.44678C15.7004 9.44678 16.9797 9.71615 18.0379 10.2531C19.0961 10.79 19.9117 11.4628 20.4809 12.2684C21.0414 13.0496 21.3875 13.972 21.4828 14.9388C21.5805 15.9125 21.4336 16.8028 21.043 17.6091C20.6523 18.4154 20.0249 19.0956 19.1614 19.6498C18.2986 20.204 17.199 20.4808 15.8634 20.4808C16.2896 19.4633 16.5616 18.3843 16.6699 17.2816C16.7832 16.1572 16.6939 15.1149 16.4009 14.1578C16.1225 13.2237 15.5878 12.3927 14.8615 11.7649C14.1293 11.1273 13.1274 10.8073 11.8565 10.8073C11.1075 10.8073 10.5855 11.186 10.2925 11.941C10.0001 12.696 9.81917 13.6462 9.75505 14.7874C9.69094 15.9292 9.69153 17.1815 9.75505 18.5414C9.80658 19.6288 9.83893 22.747 9.84912 25.8857C9.8641 30.5899 9.84613 26.0482 9.85511 29.5767L9.90185 47.3773Z"
            fill="inherit" />
        <path fill-rule="evenodd" clip-rule="evenodd"
            d="M0 30.4642L13.7447 25.7402L14.0455 26.6639L0.300811 31.3879L0 30.4642Z" fill="inherit" />
        <path fill-rule="evenodd" clip-rule="evenodd"
            d="M68.2683 24.8354L68.2349 24.8051C63.9762 25.0827 59.463 23.4187 56.0277 19.8766C52.5792 16.3209 50.9662 11.6463 51.2502 7.2411C55.3049 6.96375 59.595 8.44716 62.9688 11.6385C62.6544 13.3104 62.829 15.4891 63.5513 17.623C64.2763 19.7645 65.3968 21.3937 66.5545 22.1963C66.8739 20.5219 66.7007 18.3341 65.9757 16.1927C65.256 14.0671 64.1466 12.4461 62.9981 11.6374C63.1995 6.92747 65.2145 2.75691 68.2683 0C71.3208 2.75523 73.3347 6.92238 73.5381 11.6288C72.3852 12.4346 71.2705 14.0595 70.5483 16.1927C69.8232 18.3341 69.65 20.5219 69.9688 22.1963C71.1271 21.3937 72.247 19.7645 72.9726 17.623C73.6936 15.4928 73.8689 13.3181 73.5567 11.6474C76.9321 8.4499 81.2263 6.9635 85.2847 7.2411C85.5682 11.6463 83.9557 16.3209 80.5073 19.8766C77.0719 23.4181 72.5596 25.0822 68.3016 24.8052L68.2683 24.8354Z"
            fill="inherit" />
        <path fill-rule="evenodd" clip-rule="evenodd"
            d="M63.8003 42.4506C63.5318 38.3729 61.8163 33.4215 58.8508 28.931C55.8847 24.4399 52.3146 21.3872 49.1526 20.2695C49.421 24.3473 51.1365 29.2987 54.102 33.7891C57.0681 38.2796 60.6382 41.333 63.8003 42.4506Z"
            fill="inherit" />
    </symbol>
    <symbol viewBox="0 0 1030 1652" xmlns="http://www.w3.org/2000/svg" id="big-flower">
        <path fill-rule="evenodd" clip-rule="evenodd"
            d="M180.287 1511.28C162.743 1517.38 145.86 1520.47 129.606 1520.47C113.171 1520.55 96.7888 1518.57 80.8279 1514.57C66.8073 1511.1 53.0808 1506.5 39.7772 1500.8C25.8181 1495.85 12.4695 1489.26 0 1481.16C1.7308 1513.46 7.26934 1541.85 16.6786 1566.31C25.2382 1588.14 38.5027 1607.79 56.4559 1625.26C74.4247 1642.72 100.575 1650.61 134.735 1651.44C412.12 1658.42 600.022 905.295 596.135 638.631L547.453 636.125C540.545 817.928 491.186 1017.83 448.53 1133.42C430.167 1183.12 329.01 1459.46 180.287 1511.28Z"
            fill="#C12A48" />
        <path fill-rule="evenodd" clip-rule="evenodd"
            d="M581.713 645.691C581.42 645.429 581.128 645.167 580.836 644.904C469.007 652.122 350.496 608.859 260.288 516.768C169.736 424.324 127.378 302.791 134.836 188.26C241.307 181.05 353.957 219.615 442.55 302.583C434.288 346.052 438.871 402.705 457.841 458.194C476.88 513.869 506.303 556.228 536.702 577.094C545.088 533.563 540.541 476.683 521.502 421.008C502.606 365.75 473.48 323.609 443.323 302.58C448.605 180.119 501.519 71.6808 581.713 0C661.871 71.6346 714.755 179.979 720.093 302.344C689.815 323.292 660.541 365.541 641.573 421.008C622.535 476.683 617.987 533.563 626.358 577.094C656.772 556.228 686.18 513.869 705.235 458.194C724.169 402.81 728.771 346.265 720.572 302.828C809.205 219.691 921.972 181.042 1028.55 188.26C1035.99 302.791 993.648 424.324 903.096 516.768C812.888 608.844 694.399 652.107 582.587 644.908C582.431 645.047 582.276 645.187 582.12 645.327C581.985 645.448 581.849 645.569 581.713 645.691Z"
            fill="#C12A48" />
        <path fill-rule="evenodd" clip-rule="evenodd"
            d="M464.396 1103.68C457.347 997.661 412.298 868.93 334.428 752.183C256.542 635.42 162.795 556.052 79.7639 526.994C86.813 633.011 131.86 761.741 209.731 878.488C287.617 995.235 381.365 1074.62 464.396 1103.68Z"
            fill="#C12A48" />
    </symbol>
    <symbol viewBox="0 0 195 6" xmlns="http://www.w3.org/2000/svg" id="hero-thingy">
        <path opacity="0.5"
            d="M194.887 3.00002L192 0.113265L189.113 3.00002L192 5.88677L194.887 3.00002ZM-4.37114e-08 3.5L3 3.5L3 2.5L4.37114e-08 2.5L-4.37114e-08 3.5ZM9 3.5L15 3.5L15 2.5L9 2.5L9 3.5ZM21 3.5L27 3.5L27 2.5L21 2.5L21 3.5ZM33 3.5L39 3.5L39 2.5L33 2.5L33 3.5ZM45 3.5L51 3.5L51 2.5L45 2.5L45 3.5ZM57 3.5L63 3.50001L63 2.50001L57 2.5L57 3.5ZM69 3.50001L75 3.50001L75 2.50001L69 2.50001L69 3.50001ZM81 3.50001L87 3.50001L87 2.50001L81 2.50001L81 3.50001ZM93 3.50001L99 3.50001L99 2.50001L93 2.50001L93 3.50001ZM105 3.50001L111 3.50001L111 2.50001L105 2.50001L105 3.50001ZM117 3.50001L123 3.50001L123 2.50001L117 2.50001L117 3.50001ZM129 3.50001L135 3.50001L135 2.50001L129 2.50001L129 3.50001ZM141 3.50001L147 3.50001L147 2.50001L141 2.50001L141 3.50001ZM153 3.50001L159 3.50001L159 2.50001L153 2.50001L153 3.50001ZM165 3.50001L171 3.50001L171 2.50001L165 2.50001L165 3.50001ZM177 3.50002L183 3.50002L183 2.50002L177 2.50002L177 3.50002ZM189 3.50002L192 3.50002L192 2.50002L189 2.50002L189 3.50002Z"
            fill="white" />
    </symbol>
    <symbol viewBox="0 0 6 118" xmlns="http://www.w3.org/2000/svg" id="hero-thingy-small">
        <path
            d="M3 37.8868L5.88675 35L3 32.1132L0.11325 35L3 37.8868ZM2.5 2.18557e-08L2.5 2.1875L3.5 2.1875L3.5 -2.18557e-08L2.5 2.18557e-08ZM2.5 6.5625L2.5 10.9375L3.5 10.9375L3.5 6.5625L2.5 6.5625ZM2.5 15.3125L2.5 19.6875L3.5 19.6875L3.5 15.3125L2.5 15.3125ZM2.5 24.0625L2.5 28.4375L3.5 28.4375L3.5 24.0625L2.5 24.0625ZM2.5 32.8125L2.5 35L3.5 35L3.5 32.8125L2.5 32.8125Z"
            fill="#EA97A7" />
        <path
            d="M3 75.8868L5.88675 73L3 70.1132L0.11325 73L3 75.8868ZM2.5 35L2.5 36.9L3.5 36.9L3.5 35L2.5 35ZM2.5 40.7L2.5 44.5L3.5 44.5L3.5 40.7L2.5 40.7ZM2.5 48.3L2.5 52.1L3.5 52.1L3.5 48.3L2.5 48.3ZM2.5 55.9L2.5 59.7L3.5 59.7L3.5 55.9L2.5 55.9ZM2.5 63.5L2.5 67.3L3.5 67.3L3.5 63.5L2.5 63.5ZM2.5 71.1L2.5 73L3.5 73L3.5 71.1L2.5 71.1Z"
            fill="#EA97A7" />
        <path
            d="M3 117.887L5.88675 115L3 112.113L0.11325 115L3 117.887ZM2.5 73L2.5 75.1L3.5 75.1L3.5 73L2.5 73ZM2.5 79.3L2.5 83.5L3.5 83.5L3.5 79.3L2.5 79.3ZM2.5 87.7L2.5 91.9L3.5 91.9L3.5 87.7L2.5 87.7ZM2.5 96.1L2.5 100.3L3.5 100.3L3.5 96.1L2.5 96.1ZM2.5 104.5L2.5 108.7L3.5 108.7L3.5 104.5L2.5 104.5ZM2.5 112.9L2.5 115L3.5 115L3.5 112.9L2.5 112.9Z"
            fill="#EA97A7" />
    </symbol>
    <symbol viewBox="0 0 20 20" xmlns="http://www.w3.org/2000/svg" id="close">
        <path fill-rule="evenodd" clip-rule="evenodd"
            d="M1.05706 1.05703C1.57776 0.536329 2.42198 0.536329 2.94268 1.05703L9.99987 8.11422L17.0571 1.05703C17.5778 0.536329 18.422 0.536329 18.9427 1.05703C19.4634 1.57773 19.4634 2.42195 18.9427 2.94265L11.8855 9.99984L18.9427 17.057C19.4634 17.5777 19.4634 18.4219 18.9427 18.9426C18.422 19.4633 17.5778 19.4633 17.0571 18.9426L9.99987 11.8855L2.94268 18.9426C2.42198 19.4633 1.57776 19.4633 1.05706 18.9426C0.53636 18.4219 0.53636 17.5777 1.05706 17.057L8.11425 9.99984L1.05706 2.94265C0.53636 2.42195 0.53636 1.57773 1.05706 1.05703Z"
            fill="inherit" />
    </symbol>
    <symbol viewBox="0 0 12 8" xmlns="http://www.w3.org/2000/svg" id="arrow-down">
        <path fill-rule="evenodd" clip-rule="evenodd"
            d="M5.99999 7.3335C6.221 7.3335 6.43296 7.2457 6.58925 7.08942L11.5892 2.08942C11.9147 1.76398 11.9147 1.23634 11.5892 0.910907C11.2638 0.58547 10.7362 0.58547 10.4107 0.910907L5.99999 5.32165L1.58925 0.910907C1.26381 0.58547 0.736171 0.58547 0.410734 0.910907C0.0852972 1.23634 0.0852972 1.76398 0.410734 2.08942L5.41073 7.08942C5.56701 7.2457 5.77898 7.3335 5.99999 7.3335Z"
            fill="#81545D" />
    </symbol>
    <symbol viewBox="0 0 9 14" xmlns="http://www.w3.org/2000/svg" id="arrow-right">
        <path fill-rule="evenodd" clip-rule="evenodd"
            d="M8.5 7.00049C8.5 6.73527 8.39464 6.48092 8.20711 6.29338L2.20711 0.293382C1.81658 -0.0971429 1.18342 -0.0971429 0.792893 0.293382C0.402369 0.683906 0.402369 1.31707 0.792893 1.7076L6.08579 7.00049L0.792893 12.2934C0.402369 12.6839 0.402369 13.3171 0.792893 13.7076C1.18342 14.0981 1.81658 14.0981 2.20711 13.7076L8.20711 7.70759C8.39464 7.52006 8.5 7.2657 8.5 7.00049Z"
            fill="white" />
    </symbol>

    <symbol viewBox="0 0 832 726" xmlns="http://www.w3.org/2000/svg" id="leaf">
        <path fill-rule="evenodd" clip-rule="evenodd"
            d="M196.965 637.466C170.948 525.89 193.749 398.124 269.628 290.068C345.498 182.025 457.936 117.203 571.718 103.796C597.747 215.382 574.933 343.138 499.063 451.181C423.184 559.238 310.76 624.068 196.965 637.466Z"
            fill="#F0EBEC" />
        <path fill-rule="evenodd" clip-rule="evenodd"
            d="M197.755 636.95C100.63 578.144 27.3544 473.325 6.1843 344.396C-14.9895 215.446 20.5456 90.4182 93.1809 0.0854728C190.296 58.9049 263.582 163.712 284.743 292.653C305.926 421.59 270.39 546.617 197.755 636.95Z"
            fill="#F0EBEC" />
        <path fill-rule="evenodd" clip-rule="evenodd"
            d="M197.133 636.513C285.419 707.906 408.89 741.246 537.362 717.399C665.842 693.538 771.367 617.659 831.69 518.68C743.394 447.301 619.932 413.947 491.465 437.817C362.994 461.664 257.455 537.534 197.133 636.513Z"
            fill="#F0EBEC" />
    </symbol>
    <symbol viewBox="0 0 38 29" fill="none" xmlns="http://www.w3.org/2000/svg" id="backtick">
        <path
            d="M0.0546879 29V20.5625C0.0546879 18.1667 0.523438 15.7187 1.46094 13.2187C2.39844 10.7187 3.63542 8.36198 5.17188 6.14844C6.70833 3.93489 8.375 2.08593 10.1719 0.601561L17.5156 4.9375C16.0573 7.22917 14.8594 9.625 13.9219 12.125C13.0104 14.625 12.5547 17.4115 12.5547 20.4844V29H0.0546879ZM19.7812 29V20.5625C19.7812 18.1667 20.25 15.7187 21.1875 13.2187C22.125 10.7187 23.362 8.36198 24.8984 6.14844C26.4349 3.93489 28.1016 2.08593 29.8984 0.601561L37.2422 4.9375C35.7839 7.22917 34.5859 9.625 33.6484 12.125C32.737 14.625 32.2813 17.4115 32.2813 20.4844V29H19.7812Z"
            fill="#C6B2B6" />
    </symbol>
    <symbol viewBox="0 0 16 12" xmlns="http://www.w3.org/2000/svg" id="equal">
        <path opacity="0.4" d="M0 4.01101V0.296509H16V4.01101H0ZM0 11.7045V7.98997H16V11.7045H0Z" fill="#81545D" />
    </symbol>
    <symbol viewBox="0 0 35 365" fill="none" xmlns="http://www.w3.org/2000/svg" id="workflow-stick">
        <path
            d="M19 18.0002C19 17.448 18.5523 17.0002 18 17.0002C17.4477 17.0002 17 17.448 17 18.0002L19 18.0002ZM18 83.0002L23.7735 73.0002L12.2265 73.0002L18 83.0002ZM17 18.0002L17 74.0002L19 74.0002L19 18.0002L17 18.0002Z"
            fill="#4B101C" />
        <path
            d="M19 80.0002C19 79.448 18.5523 79.0002 18 79.0002C17.4477 79.0002 17 79.448 17 80.0002L19 80.0002ZM18 178L23.7735 168L12.2265 168L18 178ZM17 80.0002L17 169L19 169L19 80.0002L17 80.0002Z"
            fill="#4B101C" />
        <path
            d="M19 178C19 177.448 18.5523 177 18 177C17.4477 177 17 177.448 17 178L19 178ZM18 290L23.7735 280L12.2265 280L18 290ZM17 178L17 281L19 281L19 178L17 178Z"
            fill="#4B101C" />
        <path
            d="M19 260C19 259.448 18.5523 259 18 259C17.4477 259 17 259.448 17 260L19 260ZM17 260L17 348L19 348L19 260L17 260Z"
            fill="#4B101C" />
        <circle cx="17.5" cy="17.5002" r="14.5" fill="#D62F50" stroke="#FBEAEE" stroke-width="6" />
        <circle cx="17.5" cy="124.5" r="14.5" fill="#D62F50" stroke="#FBEAEE" stroke-width="6" />
        <circle cx="17.5" cy="229.5" r="14.5" fill="#D62F50" stroke="#FBEAEE" stroke-width="6" />
        <circle cx="17.5" cy="347.5" r="14.5" fill="#D62F50" stroke="#FBEAEE" stroke-width="6" />
    </symbol>
    <symbol viewBox="0 0 22 16" id="youtube" xmlns="http://www.w3.org/2000/svg">
        <path
            d="M20.9391 3.22543C20.7029 2.3472 20.0104 1.6549 19.1323 1.41842C17.5281 0.979492 11.1112 0.979492 11.1112 0.979492C11.1112 0.979492 4.69457 0.979492 3.09038 1.40179C2.22916 1.63802 1.51985 2.34736 1.28362 3.22543C0.86145 4.8295 0.86145 8.15617 0.86145 8.15617C0.86145 8.15617 0.86145 11.4996 1.28362 13.0869C1.52008 13.965 2.21227 14.6573 3.09051 14.8937C4.71145 15.3328 11.1115 15.3328 11.1115 15.3328C11.1115 15.3328 17.5281 15.3328 19.1323 14.9105C20.0105 14.6741 20.7029 13.9818 20.9393 13.1037C21.3614 11.4995 21.3614 8.17302 21.3614 8.17302C21.3614 8.17302 21.3782 4.82946 20.9391 3.22543ZM9.06819 11.2294V5.08283L14.4042 8.15611L9.06819 11.2294Z"
            fill="inherit" />
    </symbol>
    <symbol viewBox="0 0 18 19" id="instagram" xmlns="http://www.w3.org/2000/svg">
        <path
            d="M13.5006 0.155029H4.50061C2.02583 0.155029 0.000610352 2.17937 0.000610352 4.65503V13.655C0.000610352 16.1298 2.02583 18.155 4.50061 18.155H13.5006C15.9754 18.155 18.0006 16.1298 18.0006 13.655V4.65503C18.0006 2.17937 15.9754 0.155029 13.5006 0.155029ZM9.00061 12.9049C6.92925 12.9049 5.25054 11.2255 5.25054 9.15503C5.25054 7.08367 6.92925 5.40496 9.00061 5.40496C11.071 5.40496 12.7507 7.08367 12.7507 9.15503C12.7507 11.2255 11.071 12.9049 9.00061 12.9049ZM13.8757 5.40496C13.2538 5.40496 12.7507 4.90117 12.7507 4.27996C12.7507 3.65875 13.2538 3.15496 13.8757 3.15496C14.4976 3.15496 15.0007 3.65875 15.0007 4.27996C15.0007 4.90117 14.4976 5.40496 13.8757 5.40496Z"
            fill="inherit" />
    </symbol>

</svg>